<svg width="90" height="90" viewBox="0 0 90 90" fill="none" xmlns="http://www.w3.org/2000/svg">
<circle cx="45" cy="45" r="45" fill="#01B140" fill-opacity="0.06"/>
<g clip-path="url(#clip0)">
<path d="M45 57.425C51.8622 57.425 57.425 51.8622 57.425 45C57.425 38.1379 51.8622 32.575 45 32.575C38.1379 32.575 32.575 38.1379 32.575 45C32.575 51.8622 38.1379 57.425 45 57.425Z" fill="#66D368"/>
<path d="M62.7828 47.652C62.3584 47.5701 61.9493 47.8477 61.8678 48.2712C60.3148 56.3307 53.221 62.1802 45.0004 62.1802C36.9529 62.1802 29.9854 56.5745 28.2385 48.7777L28.4424 48.9816C28.595 49.1341 28.7949 49.2105 28.9948 49.2105C29.1947 49.2105 29.3946 49.1341 29.5471 48.9816C29.8523 48.6766 29.8523 48.182 29.5472 47.8768L27.9406 46.2701C27.7941 46.1235 27.5954 46.0412 27.3882 46.0412C27.181 46.0412 26.9822 46.1235 26.8357 46.2701L25.2292 47.8768C24.9241 48.1819 24.9241 48.6765 25.2293 48.9816C25.5343 49.2868 26.029 49.2867 26.3341 48.9816L26.6233 48.6923C28.3668 57.4209 36.0748 63.7427 45.0004 63.7427C53.9686 63.7427 61.7076 57.3604 63.4021 48.567C63.4837 48.1433 63.2064 47.7336 62.7828 47.652Z" fill="#01B140"/>
<path d="M64.7712 41.0184C64.4662 40.7133 63.9715 40.7134 63.6664 41.0185L63.3772 41.3077C61.6337 32.5792 53.9257 26.2574 45.0001 26.2574C36.0319 26.2574 28.2928 32.6397 26.5984 41.4331C26.5168 41.8569 26.794 42.2665 27.2177 42.3481C27.6419 42.4296 28.0511 42.1524 28.1327 41.7288C29.6857 33.6694 36.7796 27.8199 45.0001 27.8199C53.0476 27.8199 60.0151 33.4256 61.762 41.2224L61.5581 41.0185C61.2531 40.7134 60.7585 40.7134 60.4533 41.0184C60.1481 41.3235 60.1481 41.8181 60.4532 42.1233L62.0597 43.73C62.2062 43.8766 62.405 43.9589 62.6122 43.9589C62.8194 43.9589 63.0181 43.8766 63.1646 43.73L64.7712 42.1233C65.0765 41.8182 65.0765 41.3235 64.7712 41.0184Z" fill="#01B140"/>
<path d="M45.8247 48.4439C45.9194 48.4817 46.017 48.4995 46.1131 48.4995C46.4237 48.4995 46.7175 48.3129 46.8393 48.0066L49.0014 42.5708C49.1608 42.1698 48.9651 41.7156 48.5642 41.5561C48.1634 41.3967 47.709 41.5923 47.5495 41.9934L45.3874 47.4292C45.228 47.8302 45.4237 48.2845 45.8247 48.4439Z" fill="white"/>
<path d="M50.2398 43.0634H52.0335L50.1255 47.4037C49.9518 47.7987 50.1313 48.2596 50.5263 48.4333C50.6286 48.4783 50.7353 48.4996 50.8403 48.4996C51.1408 48.4996 51.4273 48.3253 51.5559 48.0326L53.9456 42.5967C54.0518 42.355 54.0289 42.0762 53.8846 41.8553C53.7403 41.6342 53.4943 41.501 53.2304 41.501H50.2399C49.8085 41.501 49.4586 41.8509 49.4586 42.2823C49.4585 42.7135 49.8083 43.0634 50.2398 43.0634Z" fill="white"/>
<path d="M40.239 46.5107C40.3796 46.7488 40.6353 46.8948 40.9118 46.8948H42.8436C42.8414 47.1827 42.8392 47.4586 42.837 47.7112C42.8333 48.1427 43.1801 48.4954 43.6115 48.4992H43.6184C44.0467 48.4992 44.3957 48.1538 44.3995 47.7246C44.4013 47.5202 44.4036 47.23 44.4063 46.8906C44.7997 46.8501 45.1067 46.5177 45.1067 46.1135C45.1067 45.7129 44.8052 45.3828 44.4167 45.3375C44.4237 44.0659 44.4264 42.7856 44.4104 42.5939C44.3686 42.0915 44.0618 41.6803 43.6286 41.5461C43.1961 41.4124 42.7414 41.5738 42.4119 41.978C42.1025 42.3574 40.7814 44.7326 40.2278 45.7361C40.0942 45.9782 40.0985 46.2727 40.239 46.5107ZM42.8588 44.2413C42.8576 44.5788 42.856 44.9501 42.8539 45.3323H42.2406C42.4577 44.9455 42.6687 44.5728 42.8588 44.2413Z" fill="white"/>
<path d="M39.7667 48.5398C40.1982 48.5344 40.5435 48.1802 40.5381 47.7488C40.5328 47.3208 40.184 46.9774 39.7571 46.9774C39.7538 46.9774 39.7504 46.9774 39.7471 46.9775C39.3193 46.9828 38.8699 46.9868 38.4639 46.9887C38.745 46.6082 39.1059 46.1095 39.5617 45.4582C39.9214 44.9444 40.1564 44.456 40.2606 44.0065C40.2863 43.9068 40.3075 43.7658 40.3078 43.6198C40.3095 42.422 39.3333 41.4475 38.1355 41.4475C37.0999 41.4475 36.2035 42.1844 36.004 43.1996C35.9209 43.6229 36.1966 44.0336 36.62 44.1168C37.0437 44.2001 37.4541 43.9242 37.5372 43.5007C37.5931 43.2164 37.8447 43.01 38.1355 43.01C38.4584 43.01 38.7234 43.2624 38.7439 43.5801L38.7303 43.6871C38.6836 43.8653 38.5673 44.154 38.2817 44.5622C37.4225 45.7897 36.91 46.4607 36.6347 46.8211C36.2817 47.2834 36.0872 47.538 36.2171 47.9608C36.2936 48.2093 36.4888 48.4076 36.7398 48.4914C36.8441 48.5261 36.9276 48.554 37.9946 48.554C38.4135 48.5539 38.9839 48.5497 39.7667 48.5398Z" fill="white"/>
</g>
<defs>
<clipPath id="clip0">
<rect width="40" height="40" fill="white" transform="translate(25 25)"/>
</clipPath>
</defs>
</svg>
