<svg width="90" height="90" viewBox="0 0 90 90" fill="none" xmlns="http://www.w3.org/2000/svg">
<circle cx="45" cy="45" r="45" fill="#01B140" fill-opacity="0.06"/>
<path d="M41.0803 30.7341C37.5856 27.2412 30.747 26.8362 25.9082 26.8362C25.4066 26.8362 25 27.2429 25 27.7444C25 32.585 25.405 39.4236 28.8979 42.9184C30.5378 44.3789 32.6814 45.1442 34.8755 45.0526C37.1379 45.1418 39.3515 44.3803 41.0803 42.9184C43.6831 40.3136 44.1608 33.8147 41.0803 30.7341Z" fill="#4CAF50"/>
<path d="M64.0916 30.4289C59.251 30.4289 52.4124 30.8339 48.9177 34.3268C45.8298 37.4147 46.3148 43.9045 48.9177 46.5092C50.647 47.9714 52.8613 48.7329 55.1242 48.6435C57.3182 48.7349 59.4618 47.9696 61.1018 46.5092C64.5965 43.0145 64.9997 36.1759 64.9997 31.3353C64.9988 30.8345 64.5925 30.4289 64.0916 30.4289Z" fill="#4CAF50"/>
<path d="M44.0718 63.1637C43.5702 63.1637 43.1636 62.7571 43.1636 62.2555C43.1636 42.993 36.0998 38.1596 33.4406 36.3414C33.1199 36.1366 32.8162 35.9064 32.5324 35.653C32.1839 35.2923 32.194 34.7173 32.5547 34.3688C32.9067 34.0289 33.4646 34.0289 33.8166 34.3688C34.0217 34.5423 34.239 34.7007 34.4668 34.8429C36.8281 36.4576 42.3898 40.263 44.3134 52.745C45.7998 46.2193 50.2063 40.7404 56.2614 37.889C56.7251 37.6708 57.2785 37.8455 57.5328 38.2904C57.7626 38.6952 57.6207 39.2096 57.2159 39.4394C57.2007 39.448 57.1852 39.4562 57.1695 39.4638L57.0224 39.5329C47.0651 44.2136 44.9745 54.4725 44.9745 62.2556C44.9746 62.755 44.5712 63.1607 44.0718 63.1637Z" fill="#388E3C"/>
</svg>
