<svg width="76" height="50" viewBox="0 0 76 50" fill="none" xmlns="http://www.w3.org/2000/svg">
<path d="M24.1099 14.7196C22.2546 14.1855 20.3992 13.9144 18.5945 13.9144C15.8075 13.9144 13.482 14.5513 11.6788 15.3312C13.4172 8.96714 17.5933 -2.01396 25.9123 -3.25059C26.6827 -3.36517 27.3141 -3.92224 27.5243 -4.67212L29.3425 -11.1753C29.4958 -11.7252 29.4049 -12.3139 29.0912 -12.7912C28.7775 -13.2685 28.2734 -13.5869 27.7084 -13.6643C27.0944 -13.7481 26.4686 -13.7908 25.8483 -13.7908C15.8628 -13.7908 5.97377 -3.36833 1.80084 11.555C-0.648714 20.3101 -1.36699 33.4729 4.66681 41.7579C8.04324 46.3939 12.9692 48.8695 19.308 49.1168C19.3341 49.1176 19.3594 49.1184 19.3855 49.1184C27.2066 49.1184 34.142 43.8511 36.2518 36.3104C37.5121 31.8025 36.9424 27.0748 34.6461 22.9952C32.3744 18.9613 28.6329 16.021 24.1099 14.7196Z" fill="#4BB33F" fill-opacity="0.1"/>
<path d="M73.0685 22.9959C70.7967 18.9613 67.0553 16.021 62.5323 14.7196C60.6769 14.1855 58.8216 13.9144 57.0176 13.9144C54.2307 13.9144 51.9044 14.5513 50.1012 15.3312C51.8396 8.96714 56.0157 -2.01396 64.3355 -3.25059C65.1059 -3.36517 65.7364 -3.92224 65.9474 -4.67212L67.7656 -11.1753C67.9189 -11.7252 67.828 -12.3139 67.5143 -12.7912C67.2014 -13.2685 66.6973 -13.5869 66.1315 -13.6643C65.5184 -13.7481 64.8925 -13.7908 64.2715 -13.7908C54.286 -13.7908 44.3969 -3.36833 40.2232 11.555C37.7744 20.3101 37.0562 33.4729 43.0907 41.7595C46.4664 46.3947 51.3931 48.8711 57.7312 49.1176C57.7572 49.1184 57.7825 49.1192 57.8094 49.1192C65.6298 49.1192 72.5659 43.8519 74.6757 36.3112C75.9345 31.8033 75.364 27.0748 73.0685 22.9959Z" fill="#4BB33F" fill-opacity="0.1"/>
</svg>
