<svg width="90" height="90" viewBox="0 0 90 90" fill="none" xmlns="http://www.w3.org/2000/svg">
<circle cx="45" cy="45" r="45" fill="#01B140" fill-opacity="0.06"/>
<g clip-path="url(#clip0)">
<path d="M58.75 41.1719C61.1231 41.1719 63.0469 39.2481 63.0469 36.875C63.0469 34.5019 61.1231 32.5781 58.75 32.5781C56.3769 32.5781 54.4531 34.5019 54.4531 36.875C54.4531 39.2481 56.3769 41.1719 58.75 41.1719Z" fill="#66D368"/>
<path d="M58.75 41.1719V32.5781C61.1195 32.5781 63.0469 34.5055 63.0469 36.875C63.0469 39.2445 61.1195 41.1719 58.75 41.1719Z" fill="#01B140"/>
<path d="M65 49.1008V57.5516C65 58.8586 63.9328 59.9219 62.6203 59.9219H54.3797C53.7328 59.9219 53.2078 59.3969 53.2078 58.75C53.2078 57.6107 52.5781 51.8382 52.5781 49.1008C52.5781 46.1937 54.9578 43.8281 57.8828 43.8281H59.6953C62.6203 43.8281 65 46.1937 65 49.1008Z" fill="#66D368"/>
<path d="M65 49.1008V57.5516C65 58.8586 63.9328 59.9219 62.6203 59.9219H58.75V43.8281H59.6953C62.6203 43.8281 65 46.1937 65 49.1008Z" fill="#01B140"/>
<path d="M31.25 41.1719C33.6231 41.1719 35.5469 39.2481 35.5469 36.875C35.5469 34.5019 33.6231 32.5781 31.25 32.5781C28.8769 32.5781 26.9531 34.5019 26.9531 36.875C26.9531 39.2481 28.8769 41.1719 31.25 41.1719Z" fill="#01B140"/>
<path d="M31.25 41.1719V32.5781C33.6195 32.5781 35.5469 34.5055 35.5469 36.875C35.5469 39.2445 33.6195 41.1719 31.25 41.1719Z" fill="#4BB33F"/>
<path d="M37.4219 49.1008C37.4219 51.926 36.7922 57.559 36.7922 58.75C36.7922 59.3969 36.2672 59.9219 35.6203 59.9219H27.2977C26.0305 59.9219 25 58.8953 25 57.6328V49.1008C25 46.1937 27.3797 43.8281 30.3047 43.8281H32.1172C35.0422 43.8281 37.4219 46.1937 37.4219 49.1008Z" fill="#01B140"/>
<path d="M37.4219 49.1008C37.4219 51.926 36.7922 57.559 36.7922 58.75C36.7922 59.3969 36.2672 59.9219 35.6203 59.9219H31.25V43.8281H32.1172C35.0422 43.8281 37.4219 46.1937 37.4219 49.1008Z" fill="#4BB33F"/>
<path d="M45 41.1719C48.7538 41.1719 51.7969 38.1288 51.7969 34.375C51.7969 30.6212 48.7538 27.5781 45 27.5781C41.2462 27.5781 38.2031 30.6212 38.2031 34.375C38.2031 38.1288 41.2462 41.1719 45 41.1719Z" fill="#58B354"/>
<path d="M45 41.1719V27.5781C48.7477 27.5781 51.7969 30.6273 51.7969 34.375C51.7969 38.1227 48.7477 41.1719 45 41.1719Z" fill="#00A963"/>
<path d="M55.5469 53.2828V59.6859C55.5469 61.1945 54.3195 62.4219 52.8109 62.4219H37.1891C35.6805 62.4219 34.4531 61.1945 34.4531 59.6859V53.2828C34.4531 48.0695 38.6945 43.8281 43.9078 43.8281H46.0922C51.3055 43.8281 55.5469 48.0695 55.5469 53.2828Z" fill="#58B354"/>
<path d="M55.5469 53.2828V59.6859C55.5469 61.1945 54.3195 62.4219 52.8109 62.4219H45V43.8281H46.0922C51.3055 43.8281 55.5469 48.0695 55.5469 53.2828Z" fill="#00A963"/>
</g>
<defs>
<clipPath id="clip0">
<rect width="40" height="40" fill="white" transform="translate(25 25)"/>
</clipPath>
</defs>
</svg>
